<svg xmlns="http://www.w3.org/2000/svg" width="128" height="128" viewBox="0 0 128 128">
  <!-- Background circle -->
  <circle cx="64" cy="64" r="60" fill="#1a1a2e"/>

  <!-- Shield shape -->
  <path d="M64 16 L104 32 L104 64 C104 88 84 108 64 116 C44 108 24 88 24 64 L24 32 Z"
        fill="#16213e" stroke="#e94560" stroke-width="3"/>

  <!-- Inner shield highlight -->
  <path d="M64 24 L96 38 L96 64 C96 84 80 100 64 106 C48 100 32 84 32 64 L32 38 Z"
        fill="#0f3460"/>

  <!-- Eye symbol (vigilance) -->
  <ellipse cx="64" cy="56" rx="24" ry="16" fill="none" stroke="#e94560" stroke-width="3"/>
  <circle cx="64" cy="56" r="8" fill="#e94560"/>
  <circle cx="64" cy="56" r="3" fill="#ffffff"/>

  <!-- Warning triangle below eye -->
  <path d="M64 78 L76 96 L52 96 Z" fill="#e94560"/>
  <path d="M64 84 L64 90" stroke="#1a1a2e" stroke-width="2" stroke-linecap="round"/>
  <circle cx="64" cy="93" r="1.5" fill="#1a1a2e"/>
</svg>
